<?xml version="1.0" encoding="UTF-8" standalone="no"?>
<svg
   xmlns:dc="http://purl.org/dc/elements/1.1/"
   xmlns:cc="http://creativecommons.org/ns#"
   xmlns:rdf="http://www.w3.org/1999/02/22-rdf-syntax-ns#"
   xmlns:svg="http://www.w3.org/2000/svg"
   xmlns="http://www.w3.org/2000/svg"
   id="svg8"
   version="1.1"
   viewBox="0 0 6.3499999 6.3499998"
   height="24"
   width="24">
  <defs
     id="defs2" />
  <metadata
     id="metadata5">
    <rdf:RDF>
      <cc:Work
         rdf:about="">
        <dc:format>image/svg+xml</dc:format>
        <dc:type
           rdf:resource="http://purl.org/dc/dcmitype/StillImage" />
        <dc:title></dc:title>
      </cc:Work>
    </rdf:RDF>
  </metadata>
  <g
     transform="translate(-21.208957,-225.67417)"
     id="layer1">
    <g
       transform="matrix(0.03633062,0,0,0.03633062,20.562243,223.56811)"
       id="g4560">
      <path
         style="fill:#000000;fill-opacity:1;stroke:#000000;stroke-width:0.99999994px;stroke-linecap:butt;stroke-linejoin:miter;stroke-opacity:1"
         d="M 413.27734,223.11133 C 326.52129,222.6501 294.0983,295.1146 298.31055,331.44531 c 0.54776,27.38669 -4.84565,51.54787 44.0625,135.41797 a 98.425293,97.410595 0 0 0 -32.14649,33.83594 c -21.122,-4.60596 -46.73045,-23.3315 -64.88476,-40.57813 -22.09701,-20.99217 -40.32684,-52.48058 -80.10157,-49.16601 -39.77477,3.31453 -75.682358,10.49715 -83.968746,107.17187 -8.286425,96.67476 69.605176,132.58151 107.722656,128.16211 26.5474,-0.53098 50.06493,4.52342 127.87305,-39.71289 a 98.425293,97.410595 0 0 0 33.74219,28.46875 c 1.84966,22.60883 -20.89817,54.99391 -41.53126,76.71289 -20.99217,22.09705 -52.48058,40.32684 -49.16601,80.10157 3.31453,39.77472 10.4952,75.68431 107.16992,83.9707 96.67475,8.28642 132.58347,-69.60713 128.16406,-107.72461 -0.55245,-27.62136 4.97011,-51.92851 -45.30078,-137.55469 0,0 -0.55814,-0.15291 -0.61914,-0.16992 a 98.425293,97.410595 0 0 0 30.68164,-31.48047 c 21.82579,2.85891 49.64168,22.93123 68.98828,41.31055 22.09705,20.99221 40.32684,52.48058 80.10157,49.16601 39.77476,-3.31453 75.68236,-10.49711 83.96875,-107.17187 8.28642,-96.67476 -69.60518,-132.58151 -107.72266,-128.16211 -26.58146,0.53163 -50.1244,-4.53887 -128.17187,39.88086 a 98.425293,97.410595 0 0 0 -34.31641,-30.8711 c -0.79877,-22.52624 21.42824,-54.00204 41.62305,-75.25976 20.99225,-22.09707 52.48058,-40.32876 49.16601,-80.10352 C 530.33,267.9147 523.14937,232.00711 426.47461,223.7207 c -4.53162,-0.38842 -8.93056,-0.58669 -13.19727,-0.60937 z m -17.5625,243.09765 a 82.392927,82.392927 0 0 1 82.39454,82.39258 82.392927,82.392927 0 0 1 -82.39454,82.39258 82.392927,82.392927 0 0 1 -82.39257,-82.39258 82.392927,82.392927 0 0 1 82.39257,-82.39258 z"
         transform="scale(0.26458333)"
         id="path4541" />
      <circle
         id="path3728"
         cx="104.17062"
         cy="145.15083"
         r="10.691406"
         style="fill:#000000;fill-opacity:1;stroke-width:0.2082229" />
    </g>
  </g>
</svg>
