<?xml version="1.0" encoding="UTF-8" standalone="no"?>
<!-- Created with Inkscape (http://www.inkscape.org/) -->

<svg
   xmlns:dc="http://purl.org/dc/elements/1.1/"
   xmlns:cc="http://creativecommons.org/ns#"
   xmlns:rdf="http://www.w3.org/1999/02/22-rdf-syntax-ns#"
   xmlns:svg="http://www.w3.org/2000/svg"
   xmlns="http://www.w3.org/2000/svg"
   xmlns:sodipodi="http://sodipodi.sourceforge.net/DTD/sodipodi-0.dtd"
   xmlns:inkscape="http://www.inkscape.org/namespaces/inkscape"
   width="24"
   height="24"
   viewBox="0 0 6.3499999 6.3499998"
   version="1.1"
   id="svg8"
   inkscape:version="0.92.4 (5da689c313, 2019-01-14)"
   sodipodi:docname="thermometer.svg">
  <defs
     id="defs2" />
  <sodipodi:namedview
     id="base"
     pagecolor="#ffffff"
     bordercolor="#666666"
     borderopacity="1.0"
     inkscape:pageopacity="0.0"
     inkscape:pageshadow="2"
     inkscape:zoom="42.420141"
     inkscape:cx="17.037649"
     inkscape:cy="12.55693"
     inkscape:document-units="mm"
     inkscape:current-layer="layer1"
     showgrid="false"
     inkscape:window-width="3000"
     inkscape:window-height="1875"
     inkscape:window-x="-13"
     inkscape:window-y="-13"
     inkscape:window-maximized="1"
     fit-margin-top="0"
     fit-margin-left="0"
     fit-margin-right="0"
     fit-margin-bottom="0"
     units="px" />
  <metadata
     id="metadata5">
    <rdf:RDF>
      <cc:Work
         rdf:about="">
        <dc:format>image/svg+xml</dc:format>
        <dc:type
           rdf:resource="http://purl.org/dc/dcmitype/StillImage" />
        <dc:title></dc:title>
      </cc:Work>
    </rdf:RDF>
  </metadata>
  <g
     inkscape:label="Layer 1"
     inkscape:groupmode="layer"
     id="layer1"
     transform="translate(-21.208957,-225.67417)">
    <g
       id="g4614">
      <g
         style="fill:#000000;fill-opacity:1"
         transform="translate(-2.7880329,-0.01871163)"
         id="g4592">
        <path
           inkscape:connector-curvature="0"
           id="path4573"
           transform="matrix(0.26458333,0,0,0.26458333,21.208957,225.67417)"
           d="M 22.470703,0.26367188 A 2.7337369,2.7337369 0 0 0 19.746094,2.796875 h -0.02734 v 13.347656 a 4.2672968,4.2672968 0 0 0 -1.515625,3.253907 4.2672968,4.2672968 0 0 0 4.267578,4.267578 4.2672968,4.2672968 0 0 0 4.265625,-4.267578 4.2672968,4.2672968 0 0 0 -1.515625,-3.261719 V 2.796875 h -0.02344 A 2.7337369,2.7337369 0 0 0 22.470703,0.26367188 Z"
           style="fill:#000000;fill-opacity:1;stroke-width:0.99999994" />
      </g>
      <path
         inkscape:connector-curvature="0"
         id="rect4582"
         d="m 24.36479,226.206 a 0.35282989,0.29108463 0 0 0 -0.35295,0.29145 0.35282989,0.29108463 0 0 0 5.17e-4,0.009 h -0.01809 v 3.64784 a 0.74094276,0.74094276 0 0 0 -0.377238,0.6444 0.74094276,0.74094276 0 0 0 0.74104,0.74104 0.74094276,0.74094276 0 0 0 0.74104,-0.74104 0.74094276,0.74094276 0 0 0 -0.381372,-0.6475 v -3.64474 h -5.17e-4 a 0.35282989,0.29108463 0 0 0 5.17e-4,-0.009 0.35282989,0.29108463 0 0 0 -0.35295,-0.29145 z"
         style="fill:#fffeff;fill-opacity:1;stroke-width:0.26458332" />
      <path
         inkscape:connector-curvature="0"
         id="path4603"
         d="m 24.346048,228.99294 a 0.18087908,0.18087908 0 0 0 -0.180868,0.18087 0.18087908,0.18087908 0 0 0 0.01292,0.0667 v 1.10639 a 0.49273959,0.49273959 0 0 0 -0.318326,0.46095 0.49273959,0.49273959 0 0 0 0.492993,0.493 0.49273959,0.49273959 0 0 0 0.492476,-0.493 0.49273959,0.49273959 0 0 0 -0.324528,-0.4625 v -1.125 a 0.18087908,0.18087908 0 0 0 0.0062,-0.0465 0.18087908,0.18087908 0 0 0 -0.180867,-0.18087 z"
         style="fill:#000000;fill-opacity:1;stroke-width:0.26458332" />
    </g>
  </g>
</svg>
