<?xml version="1.0" encoding="UTF-8" standalone="no"?>
<svg
   xmlns:dc="http://purl.org/dc/elements/1.1/"
   xmlns:cc="http://creativecommons.org/ns#"
   xmlns:rdf="http://www.w3.org/1999/02/22-rdf-syntax-ns#"
   xmlns:svg="http://www.w3.org/2000/svg"
   xmlns="http://www.w3.org/2000/svg"
   id="svg8"
   version="1.1"
   viewBox="0 0 6.3499999 6.3499998"
   height="24"
   width="24">
  <defs
     id="defs2" />
  <metadata
     id="metadata5">
    <rdf:RDF>
      <cc:Work
         rdf:about="">
        <dc:format>image/svg+xml</dc:format>
        <dc:type
           rdf:resource="http://purl.org/dc/dcmitype/StillImage" />
        <dc:title></dc:title>
      </cc:Work>
    </rdf:RDF>
  </metadata>
  <g
     transform="translate(-21.208957,-225.67417)"
     id="layer1">
    <g
       id="g4614">
      <g
         id="g4592"
         transform="translate(-2.7880329,-0.01871163)"
         style="fill:#000000;fill-opacity:1">
        <path
           style="fill:#000000;fill-opacity:1;stroke-width:0.99999994"
           d="M 22.470703,0.26367188 A 2.7337369,2.7337369 0 0 0 19.746094,2.796875 h -0.02734 v 13.347656 a 4.2672968,4.2672968 0 0 0 -1.515625,3.253907 4.2672968,4.2672968 0 0 0 4.267578,4.267578 4.2672968,4.2672968 0 0 0 4.265625,-4.267578 4.2672968,4.2672968 0 0 0 -1.515625,-3.261719 V 2.796875 h -0.02344 A 2.7337369,2.7337369 0 0 0 22.470703,0.26367188 Z"
           transform="matrix(0.26458333,0,0,0.26458333,21.208957,225.67417)"
           id="path4573" />
      </g>
      <path
         style="fill:#fffeff;fill-opacity:1;stroke-width:0.26458332"
         d="m 24.36479,226.206 a 0.35282989,0.29108463 0 0 0 -0.35295,0.29145 0.35282989,0.29108463 0 0 0 5.17e-4,0.009 h -0.01809 v 3.64784 a 0.74094276,0.74094276 0 0 0 -0.377238,0.6444 0.74094276,0.74094276 0 0 0 0.74104,0.74104 0.74094276,0.74094276 0 0 0 0.74104,-0.74104 0.74094276,0.74094276 0 0 0 -0.381372,-0.6475 v -3.64474 h -5.17e-4 a 0.35282989,0.29108463 0 0 0 5.17e-4,-0.009 0.35282989,0.29108463 0 0 0 -0.35295,-0.29145 z"
         id="rect4582" />
      <path
         style="fill:#000000;fill-opacity:1;stroke-width:0.26458332"
         d="m 24.346048,228.99294 a 0.18087908,0.18087908 0 0 0 -0.180868,0.18087 0.18087908,0.18087908 0 0 0 0.01292,0.0667 v 1.10639 a 0.49273959,0.49273959 0 0 0 -0.318326,0.46095 0.49273959,0.49273959 0 0 0 0.492993,0.493 0.49273959,0.49273959 0 0 0 0.492476,-0.493 0.49273959,0.49273959 0 0 0 -0.324528,-0.4625 v -1.125 a 0.18087908,0.18087908 0 0 0 0.0062,-0.0465 0.18087908,0.18087908 0 0 0 -0.180867,-0.18087 z"
         id="path4603" />
    </g>
  </g>
</svg>
