<?xml version="1.0" encoding="UTF-8" standalone="no"?>
<!-- Created with Inkscape (http://www.inkscape.org/) -->

<svg
   xmlns:dc="http://purl.org/dc/elements/1.1/"
   xmlns:cc="http://creativecommons.org/ns#"
   xmlns:rdf="http://www.w3.org/1999/02/22-rdf-syntax-ns#"
   xmlns:svg="http://www.w3.org/2000/svg"
   xmlns="http://www.w3.org/2000/svg"
   xmlns:sodipodi="http://sodipodi.sourceforge.net/DTD/sodipodi-0.dtd"
   xmlns:inkscape="http://www.inkscape.org/namespaces/inkscape"
   width="24"
   height="24"
   viewBox="0 0 6.3499999 6.3499998"
   version="1.1"
   id="svg8"
   inkscape:version="0.92.4 (5da689c313, 2019-01-14)"
   sodipodi:docname="thermometer.svg">
  <defs
     id="defs2" />
  <sodipodi:namedview
     id="base"
     pagecolor="#ffffff"
     bordercolor="#666666"
     borderopacity="1.0"
     inkscape:pageopacity="0.0"
     inkscape:pageshadow="2"
     inkscape:zoom="42.420141"
     inkscape:cx="17.037649"
     inkscape:cy="12.55693"
     inkscape:document-units="mm"
     inkscape:current-layer="layer1"
     showgrid="false"
     inkscape:window-width="3000"
     inkscape:window-height="1875"
     inkscape:window-x="-13"
     inkscape:window-y="-13"
     inkscape:window-maximized="1"
     fit-margin-top="0"
     fit-margin-left="0"
     fit-margin-right="0"
     fit-margin-bottom="0"
     units="px" />
  <metadata
     id="metadata5">
    <rdf:RDF>
      <cc:Work
         rdf:about="">
        <dc:format>image/svg+xml</dc:format>
        <dc:type
           rdf:resource="http://purl.org/dc/dcmitype/StillImage" />
        <dc:title></dc:title>
      </cc:Work>
    </rdf:RDF>
  </metadata>
  <g
     inkscape:label="Layer 1"
     inkscape:groupmode="layer"
     id="layer1"
     transform="translate(-21.208957,-225.67417)">
    <g
       id="g4592"
       transform="matrix(1.0828776,0,0,1.0231684,-5.0447341,-5.2675529)"
       style="fill:#000000;fill-opacity:1">
      <path
         style="fill:#000000;fill-opacity:1;stroke-width:0.99999994"
         d="M 22.470703,0.26367188 A 2.7337369,2.7337369 0 0 0 19.746094,2.796875 h -0.02734 v 13.347656 a 4.2672968,4.2672968 0 0 0 -1.515625,3.253907 4.2672968,4.2672968 0 0 0 4.267578,4.267578 4.2672968,4.2672968 0 0 0 4.265625,-4.267578 4.2672968,4.2672968 0 0 0 -1.515625,-3.261719 V 2.796875 h -0.02344 A 2.7337369,2.7337369 0 0 0 22.470703,0.26367188 Z"
         transform="matrix(0.26458333,0,0,0.26458333,21.208957,225.67417)"
         id="path4573"
         inkscape:connector-curvature="0" />
    </g>
    <path
       style="fill:#fffeff;fill-opacity:1;stroke-width:0.29303485"
       d="m 24.34019,226.0113 a 0.40582926,0.31042373 0 0 0 -0.405967,0.31082 0.40582926,0.31042373 0 0 0 5.95e-4,0.009 h -0.02081 v 3.8902 a 0.85224146,0.79016954 0 0 0 -0.433905,0.68721 0.85224146,0.79016954 0 0 0 0.852354,0.79027 0.85224146,0.79016954 0 0 0 0.852353,-0.79027 0.85224146,0.79016954 0 0 0 -0.438659,-0.69051 v -3.8869 h -5.94e-4 a 0.40582926,0.31042373 0 0 0 5.94e-4,-0.009 0.40582926,0.31042373 0 0 0 -0.405968,-0.31082 z"
       id="rect4582"
       inkscape:connector-curvature="0" />
    <path
       style="fill:#000000;fill-opacity:1;stroke-width:0.27850032"
       d="m 24.313205,229.06864 a 0.1958699,0.18506976 0 0 0 -0.195858,0.18506 0.1958699,0.18506976 0 0 0 0.01399,0.0682 v 1.13202 a 0.53357666,0.50415558 0 0 0 -0.344708,0.47163 0.53357666,0.50415558 0 0 0 0.533851,0.50442 0.53357666,0.50415558 0 0 0 0.533291,-0.50442 0.53357666,0.50415558 0 0 0 -0.351424,-0.47322 v -1.15106 a 0.1958699,0.18506976 0 0 0 0.0067,-0.0476 0.1958699,0.18506976 0 0 0 -0.195857,-0.18506 z"
       id="path4603"
       inkscape:connector-curvature="0" />
  </g>
</svg>
