<?xml version="1.0" encoding="UTF-8" standalone="no"?>
<svg
   xmlns:dc="http://purl.org/dc/elements/1.1/"
   xmlns:cc="http://creativecommons.org/ns#"
   xmlns:rdf="http://www.w3.org/1999/02/22-rdf-syntax-ns#"
   xmlns:svg="http://www.w3.org/2000/svg"
   xmlns="http://www.w3.org/2000/svg"
   id="svg8"
   version="1.1"
   viewBox="0 0 6.3499999 6.3499998"
   height="24"
   width="24">
  <defs
     id="defs2" />
  <metadata
     id="metadata5">
    <rdf:RDF>
      <cc:Work
         rdf:about="">
        <dc:format>image/svg+xml</dc:format>
        <dc:type
           rdf:resource="http://purl.org/dc/dcmitype/StillImage" />
        <dc:title></dc:title>
      </cc:Work>
    </rdf:RDF>
  </metadata>
  <g
     transform="translate(-21.208957,-225.67417)"
     id="layer1">
    <g
       style="fill:#000000;fill-opacity:1"
       transform="matrix(1.0828776,0,0,1.0231684,-5.0447341,-5.2675529)"
       id="g4592">
      <path
         id="path4573"
         transform="matrix(0.26458333,0,0,0.26458333,21.208957,225.67417)"
         d="M 22.470703,0.26367188 A 2.7337369,2.7337369 0 0 0 19.746094,2.796875 h -0.02734 v 13.347656 a 4.2672968,4.2672968 0 0 0 -1.515625,3.253907 4.2672968,4.2672968 0 0 0 4.267578,4.267578 4.2672968,4.2672968 0 0 0 4.265625,-4.267578 4.2672968,4.2672968 0 0 0 -1.515625,-3.261719 V 2.796875 h -0.02344 A 2.7337369,2.7337369 0 0 0 22.470703,0.26367188 Z"
         style="fill:#000000;fill-opacity:1;stroke-width:0.99999994" />
    </g>
    <path
       id="rect4582"
       d="m 24.34019,226.0113 a 0.40582926,0.31042373 0 0 0 -0.405967,0.31082 0.40582926,0.31042373 0 0 0 5.95e-4,0.009 h -0.02081 v 3.8902 a 0.85224146,0.79016954 0 0 0 -0.433905,0.68721 0.85224146,0.79016954 0 0 0 0.852354,0.79027 0.85224146,0.79016954 0 0 0 0.852353,-0.79027 0.85224146,0.79016954 0 0 0 -0.438659,-0.69051 v -3.8869 h -5.94e-4 a 0.40582926,0.31042373 0 0 0 5.94e-4,-0.009 0.40582926,0.31042373 0 0 0 -0.405968,-0.31082 z"
       style="fill:#fffeff;fill-opacity:1;stroke-width:0.29303485" />
    <path
       id="path4603"
       d="m 24.313205,229.06864 a 0.1958699,0.18506976 0 0 0 -0.195858,0.18506 0.1958699,0.18506976 0 0 0 0.01399,0.0682 v 1.13202 a 0.53357666,0.50415558 0 0 0 -0.344708,0.47163 0.53357666,0.50415558 0 0 0 0.533851,0.50442 0.53357666,0.50415558 0 0 0 0.533291,-0.50442 0.53357666,0.50415558 0 0 0 -0.351424,-0.47322 v -1.15106 a 0.1958699,0.18506976 0 0 0 0.0067,-0.0476 0.1958699,0.18506976 0 0 0 -0.195857,-0.18506 z"
       style="fill:#000000;fill-opacity:1;stroke-width:0.27850032" />
  </g>
</svg>
